<mxfile host="app.diagrams.net" agent="Mozilla/5.0 (Windows NT 10.0; Win64; x64) AppleWebKit/537.36 (KHTML, like Gecko) Chrome/129.0.0.0 Safari/537.36" version="24.7.17">
  <diagram name="Page-1" id="FQ0ieRzcdgUBs3yKihAU">
    <mxGraphModel dx="1432" dy="1547" grid="0" gridSize="10" guides="1" tooltips="1" connect="1" arrows="1" fold="1" page="0" pageScale="1" pageWidth="827" pageHeight="1169" math="1" shadow="0">
      <root>
        <mxCell id="0" />
        <mxCell id="1" parent="0" />
        <mxCell id="Nq_14NFU0CeGop4sX_jh-65" value="" style="edgeStyle=none;curved=1;rounded=0;orthogonalLoop=1;jettySize=auto;html=1;fontSize=12;startSize=8;endSize=8;entryX=0;entryY=0.5;entryDx=0;entryDy=0;" edge="1" parent="1" source="Nq_14NFU0CeGop4sX_jh-2" target="Nq_14NFU0CeGop4sX_jh-51">
          <mxGeometry relative="1" as="geometry">
            <mxPoint x="124" y="85" as="targetPoint" />
          </mxGeometry>
        </mxCell>
        <mxCell id="Nq_14NFU0CeGop4sX_jh-2" value="Question" style="swimlane;fontStyle=2;align=center;verticalAlign=top;childLayout=stackLayout;horizontal=1;startSize=26;horizontalStack=0;resizeParent=1;resizeLast=0;collapsible=1;marginBottom=0;rounded=0;shadow=0;strokeWidth=1;" vertex="1" parent="1">
          <mxGeometry x="-177" y="-63" width="160" height="78" as="geometry">
            <mxRectangle x="120" y="386" width="160" height="26" as="alternateBounds" />
          </mxGeometry>
        </mxCell>
        <mxCell id="Nq_14NFU0CeGop4sX_jh-3" value="text&#xa;" style="text;align=left;verticalAlign=top;spacingLeft=4;spacingRight=4;overflow=hidden;rotatable=0;points=[[0,0.5],[1,0.5]];portConstraint=eastwest;" vertex="1" parent="Nq_14NFU0CeGop4sX_jh-2">
          <mxGeometry y="26" width="160" height="26" as="geometry" />
        </mxCell>
        <mxCell id="Nq_14NFU0CeGop4sX_jh-4" value="answer" style="text;align=left;verticalAlign=top;spacingLeft=4;spacingRight=4;overflow=hidden;rotatable=0;points=[[0,0.5],[1,0.5]];portConstraint=eastwest;rounded=0;shadow=0;html=0;" vertex="1" parent="Nq_14NFU0CeGop4sX_jh-2">
          <mxGeometry y="52" width="160" height="26" as="geometry" />
        </mxCell>
        <mxCell id="Nq_14NFU0CeGop4sX_jh-49" value="QuizBrain" style="swimlane;fontStyle=0;childLayout=stackLayout;horizontal=1;startSize=30;horizontalStack=0;resizeParent=1;resizeParentMax=0;resizeLast=0;collapsible=1;marginBottom=0;whiteSpace=wrap;html=1;" vertex="1" parent="1">
          <mxGeometry x="94" y="-99" width="140" height="180" as="geometry" />
        </mxCell>
        <mxCell id="Nq_14NFU0CeGop4sX_jh-50" value="question_number" style="text;strokeColor=none;fillColor=none;align=left;verticalAlign=middle;spacingLeft=4;spacingRight=4;overflow=hidden;points=[[0,0.5],[1,0.5]];portConstraint=eastwest;rotatable=0;whiteSpace=wrap;html=1;" vertex="1" parent="Nq_14NFU0CeGop4sX_jh-49">
          <mxGeometry y="30" width="140" height="30" as="geometry" />
        </mxCell>
        <mxCell id="Nq_14NFU0CeGop4sX_jh-51" value="question_list" style="text;strokeColor=none;fillColor=none;align=left;verticalAlign=middle;spacingLeft=4;spacingRight=4;overflow=hidden;points=[[0,0.5],[1,0.5]];portConstraint=eastwest;rotatable=0;whiteSpace=wrap;html=1;" vertex="1" parent="Nq_14NFU0CeGop4sX_jh-49">
          <mxGeometry y="60" width="140" height="30" as="geometry" />
        </mxCell>
        <mxCell id="Nq_14NFU0CeGop4sX_jh-71" value="score" style="text;strokeColor=none;fillColor=none;align=left;verticalAlign=middle;spacingLeft=4;spacingRight=4;overflow=hidden;points=[[0,0.5],[1,0.5]];portConstraint=eastwest;rotatable=0;whiteSpace=wrap;html=1;" vertex="1" parent="Nq_14NFU0CeGop4sX_jh-49">
          <mxGeometry y="90" width="140" height="30" as="geometry" />
        </mxCell>
        <mxCell id="Nq_14NFU0CeGop4sX_jh-54" value="" style="endArrow=none;html=1;rounded=0;fontSize=12;startSize=8;endSize=8;curved=1;exitX=0;exitY=0.5;exitDx=0;exitDy=0;entryX=1;entryY=0.5;entryDx=0;entryDy=0;" edge="1" parent="Nq_14NFU0CeGop4sX_jh-49">
          <mxGeometry width="50" height="50" relative="1" as="geometry">
            <mxPoint y="120" as="sourcePoint" />
            <mxPoint x="140" y="120" as="targetPoint" />
          </mxGeometry>
        </mxCell>
        <mxCell id="Nq_14NFU0CeGop4sX_jh-52" value="next_question()" style="text;strokeColor=none;fillColor=none;align=left;verticalAlign=middle;spacingLeft=4;spacingRight=4;overflow=hidden;points=[[0,0.5],[1,0.5]];portConstraint=eastwest;rotatable=0;whiteSpace=wrap;html=1;" vertex="1" parent="Nq_14NFU0CeGop4sX_jh-49">
          <mxGeometry y="120" width="140" height="30" as="geometry" />
        </mxCell>
        <mxCell id="Nq_14NFU0CeGop4sX_jh-72" value="check_answer()" style="text;strokeColor=none;fillColor=none;align=left;verticalAlign=middle;spacingLeft=4;spacingRight=4;overflow=hidden;points=[[0,0.5],[1,0.5]];portConstraint=eastwest;rotatable=0;whiteSpace=wrap;html=1;" vertex="1" parent="Nq_14NFU0CeGop4sX_jh-49">
          <mxGeometry y="150" width="140" height="30" as="geometry" />
        </mxCell>
        <mxCell id="Nq_14NFU0CeGop4sX_jh-81" value="" style="edgeStyle=none;curved=1;rounded=0;orthogonalLoop=1;jettySize=auto;html=1;fontSize=12;startSize=8;endSize=8;" edge="1" parent="1" source="Nq_14NFU0CeGop4sX_jh-73" target="Nq_14NFU0CeGop4sX_jh-75">
          <mxGeometry relative="1" as="geometry" />
        </mxCell>
        <mxCell id="Nq_14NFU0CeGop4sX_jh-73" value="start" style="rounded=1;whiteSpace=wrap;html=1;" vertex="1" parent="1">
          <mxGeometry x="410.5" y="-91" width="120" height="60" as="geometry" />
        </mxCell>
        <mxCell id="Nq_14NFU0CeGop4sX_jh-82" value="" style="edgeStyle=none;curved=1;rounded=0;orthogonalLoop=1;jettySize=auto;html=1;fontSize=12;startSize=8;endSize=8;" edge="1" parent="1" source="Nq_14NFU0CeGop4sX_jh-75" target="Nq_14NFU0CeGop4sX_jh-76">
          <mxGeometry relative="1" as="geometry" />
        </mxCell>
        <mxCell id="Nq_14NFU0CeGop4sX_jh-75" value="next_question()" style="rounded=1;whiteSpace=wrap;html=1;" vertex="1" parent="1">
          <mxGeometry x="410.5" y="43" width="120" height="60" as="geometry" />
        </mxCell>
        <mxCell id="Nq_14NFU0CeGop4sX_jh-83" value="" style="edgeStyle=none;curved=1;rounded=0;orthogonalLoop=1;jettySize=auto;html=1;fontSize=12;startSize=8;endSize=8;" edge="1" parent="1" source="Nq_14NFU0CeGop4sX_jh-76" target="Nq_14NFU0CeGop4sX_jh-78">
          <mxGeometry relative="1" as="geometry" />
        </mxCell>
        <mxCell id="Nq_14NFU0CeGop4sX_jh-76" value="User types answer" style="ellipse;whiteSpace=wrap;html=1;" vertex="1" parent="1">
          <mxGeometry x="410.5" y="161" width="120" height="80" as="geometry" />
        </mxCell>
        <mxCell id="Nq_14NFU0CeGop4sX_jh-78" value="still_has_questions()" style="rhombus;whiteSpace=wrap;html=1;" vertex="1" parent="1">
          <mxGeometry x="387" y="285" width="167" height="80" as="geometry" />
        </mxCell>
        <mxCell id="Nq_14NFU0CeGop4sX_jh-80" value="end" style="rounded=1;whiteSpace=wrap;html=1;" vertex="1" parent="1">
          <mxGeometry x="410.5" y="434" width="120" height="60" as="geometry" />
        </mxCell>
        <mxCell id="Nq_14NFU0CeGop4sX_jh-96" value="" style="endArrow=classic;html=1;rounded=0;fontSize=12;startSize=8;endSize=8;curved=1;exitX=0.5;exitY=1;exitDx=0;exitDy=0;entryX=0.5;entryY=0;entryDx=0;entryDy=0;" edge="1" parent="1" source="Nq_14NFU0CeGop4sX_jh-78" target="Nq_14NFU0CeGop4sX_jh-80">
          <mxGeometry relative="1" as="geometry">
            <mxPoint x="742.5" y="186" as="sourcePoint" />
            <mxPoint x="842.5" y="186" as="targetPoint" />
          </mxGeometry>
        </mxCell>
        <mxCell id="Nq_14NFU0CeGop4sX_jh-97" value="False" style="edgeLabel;resizable=0;html=1;fontSize=12;;align=center;verticalAlign=middle;" connectable="0" vertex="1" parent="Nq_14NFU0CeGop4sX_jh-96">
          <mxGeometry relative="1" as="geometry" />
        </mxCell>
        <mxCell id="Nq_14NFU0CeGop4sX_jh-99" value="True" style="text;html=1;align=center;verticalAlign=middle;resizable=0;points=[];autosize=1;strokeColor=none;fillColor=none;fontSize=16;" vertex="1" parent="1">
          <mxGeometry x="600.5" y="165" width="50" height="31" as="geometry" />
        </mxCell>
        <mxCell id="Nq_14NFU0CeGop4sX_jh-101" value="" style="edgeStyle=segmentEdgeStyle;endArrow=classic;html=1;curved=0;rounded=0;endSize=8;startSize=8;fontSize=12;exitX=1;exitY=0.5;exitDx=0;exitDy=0;entryX=0.48;entryY=1.065;entryDx=0;entryDy=0;entryPerimeter=0;" edge="1" parent="1" source="Nq_14NFU0CeGop4sX_jh-78" target="Nq_14NFU0CeGop4sX_jh-99">
          <mxGeometry width="50" height="50" relative="1" as="geometry">
            <mxPoint x="767.5" y="211" as="sourcePoint" />
            <mxPoint x="817.5" y="161" as="targetPoint" />
          </mxGeometry>
        </mxCell>
        <mxCell id="Nq_14NFU0CeGop4sX_jh-104" value="" style="edgeStyle=segmentEdgeStyle;endArrow=classic;html=1;curved=0;rounded=0;endSize=8;startSize=8;fontSize=12;entryX=1;entryY=0.5;entryDx=0;entryDy=0;exitX=0.4;exitY=-0.032;exitDx=0;exitDy=0;exitPerimeter=0;" edge="1" parent="1" source="Nq_14NFU0CeGop4sX_jh-99" target="Nq_14NFU0CeGop4sX_jh-75">
          <mxGeometry width="50" height="50" relative="1" as="geometry">
            <mxPoint x="654.5" y="111" as="sourcePoint" />
            <mxPoint x="561.5" y="74" as="targetPoint" />
            <Array as="points">
              <mxPoint x="619.5" y="74" />
            </Array>
          </mxGeometry>
        </mxCell>
      </root>
    </mxGraphModel>
  </diagram>
</mxfile>